<svg xmlns="http://www.w3.org/2000/svg" width="55" height="24" viewBox="0 0 55 24" fill="none">
  <path d="M0.517045 18V0.545454H4.20739V14.9574H11.6903V18H0.517045ZM19.3808 18.2557C18.057 18.2557 16.9121 17.9744 15.9462 17.4119C14.9859 16.8437 14.2445 16.054 13.7217 15.0426C13.199 14.0256 12.9376 12.8466 12.9376 11.5057C12.9376 10.1534 13.199 8.97159 13.7217 7.96023C14.2445 6.94318 14.9859 6.15341 15.9462 5.59091C16.9121 5.02273 18.057 4.73864 19.3808 4.73864C20.7047 4.73864 21.8467 5.02273 22.807 5.59091C23.7729 6.15341 24.5172 6.94318 25.0399 7.96023C25.5626 8.97159 25.824 10.1534 25.824 11.5057C25.824 12.8466 25.5626 14.0256 25.0399 15.0426C24.5172 16.054 23.7729 16.8437 22.807 17.4119C21.8467 17.9744 20.7047 18.2557 19.3808 18.2557ZM19.3979 15.4432C20.0001 15.4432 20.503 15.2727 20.9064 14.9318C21.3098 14.5852 21.6138 14.1136 21.8183 13.517C22.0286 12.9205 22.1337 12.2415 22.1337 11.4801C22.1337 10.7188 22.0286 10.0398 21.8183 9.44318C21.6138 8.84659 21.3098 8.375 20.9064 8.02841C20.503 7.68182 20.0001 7.50852 19.3979 7.50852C18.7899 7.50852 18.2786 7.68182 17.8638 8.02841C17.4547 8.375 17.145 8.84659 16.9348 9.44318C16.7303 10.0398 16.628 10.7188 16.628 11.4801C16.628 12.2415 16.7303 12.9205 16.9348 13.517C17.145 14.1136 17.4547 14.5852 17.8638 14.9318C18.2786 15.2727 18.7899 15.4432 19.3979 15.4432ZM33.4825 23.1818C32.3064 23.1818 31.2979 23.0199 30.457 22.696C29.6217 22.3778 28.957 21.9432 28.4626 21.392C27.9683 20.8409 27.6473 20.2216 27.4996 19.5341L30.8575 19.0824C30.9598 19.3438 31.1217 19.5881 31.3433 19.8153C31.5649 20.0426 31.8575 20.2244 32.2212 20.3608C32.5905 20.5028 33.0393 20.5739 33.5678 20.5739C34.3575 20.5739 35.0081 20.3807 35.5195 19.9943C36.0365 19.6136 36.295 18.9744 36.295 18.0767V15.6818H36.1416C35.9825 16.0455 35.7439 16.3892 35.4257 16.7131C35.1075 17.0369 34.6984 17.3011 34.1984 17.5057C33.6984 17.7102 33.1018 17.8125 32.4087 17.8125C31.4257 17.8125 30.5308 17.5852 29.724 17.1307C28.9229 16.6705 28.2837 15.9687 27.8064 15.0256C27.3348 14.0767 27.099 12.8778 27.099 11.429C27.099 9.94602 27.3405 8.70739 27.8234 7.71307C28.3064 6.71875 28.9484 5.97443 29.7496 5.48011C30.5564 4.9858 31.4399 4.73864 32.4001 4.73864C33.1331 4.73864 33.7467 4.86364 34.2411 5.11364C34.7354 5.35795 35.1331 5.66477 35.4342 6.03409C35.7411 6.39773 35.9768 6.75568 36.1416 7.10795H36.278V4.90909H39.8831V18.1278C39.8831 19.2415 39.6104 20.1733 39.0649 20.9233C38.5195 21.6733 37.7638 22.2358 36.7979 22.6108C35.8376 22.9915 34.7325 23.1818 33.4825 23.1818ZM33.5592 15.0852C34.1445 15.0852 34.6388 14.9403 35.0422 14.6506C35.4513 14.3551 35.7638 13.9347 35.9797 13.3892C36.2013 12.8381 36.3121 12.179 36.3121 11.4119C36.3121 10.6449 36.2041 9.98011 35.9882 9.41761C35.7723 8.84943 35.4598 8.40909 35.0507 8.09659C34.6416 7.78409 34.1445 7.62784 33.5592 7.62784C32.9626 7.62784 32.4598 7.78977 32.0507 8.11364C31.6416 8.43182 31.332 8.875 31.1217 9.44318C30.9115 10.0114 30.8064 10.6676 30.8064 11.4119C30.8064 12.1676 30.9115 12.821 31.1217 13.3722C31.3376 13.9176 31.6473 14.3409 32.0507 14.642C32.4598 14.9375 32.9626 15.0852 33.5592 15.0852ZM48.0871 18.2557C46.7632 18.2557 45.6183 17.9744 44.6524 17.4119C43.6922 16.8437 42.9507 16.054 42.428 15.0426C41.9053 14.0256 41.6439 12.8466 41.6439 11.5057C41.6439 10.1534 41.9053 8.97159 42.428 7.96023C42.9507 6.94318 43.6922 6.15341 44.6524 5.59091C45.6183 5.02273 46.7632 4.73864 48.0871 4.73864C49.4109 4.73864 50.553 5.02273 51.5132 5.59091C52.4791 6.15341 53.2234 6.94318 53.7462 7.96023C54.2689 8.97159 54.5303 10.1534 54.5303 11.5057C54.5303 12.8466 54.2689 14.0256 53.7462 15.0426C53.2234 16.054 52.4791 16.8437 51.5132 17.4119C50.553 17.9744 49.4109 18.2557 48.0871 18.2557ZM48.1041 15.4432C48.7064 15.4432 49.2092 15.2727 49.6126 14.9318C50.0161 14.5852 50.32 14.1136 50.5246 13.517C50.7348 12.9205 50.8399 12.2415 50.8399 11.4801C50.8399 10.7188 50.7348 10.0398 50.5246 9.44318C50.32 8.84659 50.0161 8.375 49.6126 8.02841C49.2092 7.68182 48.7064 7.50852 48.1041 7.50852C47.4962 7.50852 46.9848 7.68182 46.57 8.02841C46.1609 8.375 45.8513 8.84659 45.6411 9.44318C45.4365 10.0398 45.3342 10.7188 45.3342 11.4801C45.3342 12.2415 45.4365 12.9205 45.6411 13.517C45.8513 14.1136 46.1609 14.5852 46.57 14.9318C46.9848 15.2727 47.4962 15.4432 48.1041 15.4432Z" fill="#F6F3ED"/>
</svg>
